<svg height="958" width="720" xmlns="http://www.w3.org/2000/svg">
<rect height="958" fill="#555" width="720"></rect>
<text fill="#7f7" font-family="Courier New" font-size="12" xml:space="preserve">
<tspan x="10" y="26">└─┬ babel-preset-stage-0@6.22.0 </tspan>
<tspan x="10" y="42">  ├─┬ babel-plugin-transform-do-expressions@6.22.0 </tspan>
<tspan x="10" y="58">  │ ├── babel-plugin-syntax-do-expressions@6.13.0 </tspan>
<tspan x="10" y="74">  │ └─┬ babel-runtime@6.23.0 </tspan>
<tspan x="10" y="90">  │   ├── core-js@2.4.1 </tspan>
<tspan x="10" y="106">  │   └── regenerator-runtime@0.10.3 </tspan>
<tspan x="10" y="122">  ├─┬ babel-plugin-transform-function-bind@6.22.0 </tspan>
<tspan x="10" y="138">  │ └── babel-plugin-syntax-function-bind@6.13.0 </tspan>
<tspan x="10" y="154">  └─┬ babel-preset-stage-1@6.22.0 </tspan>
<tspan x="10" y="170">    ├─┬ babel-plugin-transform-class-constructor-call@6.22.0 </tspan>
<tspan x="10" y="186">    │ ├── babel-plugin-syntax-class-constructor-call@6.18.0 </tspan>
<tspan x="10" y="202">    │ └─┬ babel-template@6.23.0 </tspan>
<tspan x="10" y="218">    │   ├─┬ babel-traverse@6.23.1 </tspan>
<tspan x="10" y="234">    │   │ ├─┬ babel-code-frame@6.22.0 </tspan>
<tspan x="10" y="250">    │   │ │ ├─┬ chalk@1.1.3 </tspan>
<tspan x="10" y="266">    │   │ │ │ ├── ansi-styles@2.2.1 </tspan>
<tspan x="10" y="282">    │   │ │ │ ├── escape-string-regexp@1.0.5 </tspan>
<tspan x="10" y="298">    │   │ │ │ ├─┬ has-ansi@2.0.0 </tspan>
<tspan x="10" y="314">    │   │ │ │ │ └── ansi-regex@2.1.1 </tspan>
<tspan x="10" y="330">    │   │ │ │ ├── strip-ansi@3.0.1 </tspan>
<tspan x="10" y="346">    │   │ │ │ └── supports-color@2.0.0 </tspan>
<tspan x="10" y="362">    │   │ │ └── js-tokens@3.0.1 </tspan>
<tspan x="10" y="378">    │   │ ├── babel-messages@6.23.0 </tspan>
<tspan x="10" y="394">    │   │ ├─┬ debug@2.6.3 </tspan>
<tspan x="10" y="410">    │   │ │ └── ms@0.7.2 </tspan>
<tspan x="10" y="426">    │   │ ├── globals@9.17.0 </tspan>
<tspan x="10" y="442">    │   │ └─┬ invariant@2.2.2 </tspan>
<tspan x="10" y="458">    │   │   └── loose-envify@1.3.1 </tspan>
<tspan x="10" y="474">    │   ├─┬ babel-types@6.23.0 </tspan>
<tspan x="10" y="490">    │   │ ├── esutils@2.0.2 </tspan>
<tspan x="10" y="506">    │   │ └── to-fast-properties@1.0.2 </tspan>
<tspan x="10" y="522">    │   ├── babylon@6.16.1 </tspan>
<tspan x="10" y="538">    │   └── lodash@4.17.4 </tspan>
<tspan x="10" y="554">    ├─┬ babel-plugin-transform-export-extensions@6.22.0 </tspan>
<tspan x="10" y="570">    │ └── babel-plugin-syntax-export-extensions@6.13.0 </tspan>
<tspan x="10" y="586">    └─┬ babel-preset-stage-2@6.22.0 </tspan>
<tspan x="10" y="602">      ├── babel-plugin-syntax-dynamic-import@6.18.0 </tspan>
<tspan x="10" y="618">      ├─┬ babel-plugin-transform-class-properties@6.23.0 </tspan>
<tspan x="10" y="634">      │ ├─┬ babel-helper-function-name@6.23.0 </tspan>
<tspan x="10" y="650">      │ │ └── babel-helper-get-function-arity@6.22.0 </tspan>
<tspan x="10" y="666">      │ └── babel-plugin-syntax-class-properties@6.13.0 </tspan>
<tspan x="10" y="682">      ├─┬ babel-plugin-transform-decorators@6.22.0 </tspan>
<tspan x="10" y="698">      │ ├─┬ babel-helper-explode-class@6.22.0 </tspan>
<tspan x="10" y="714">      │ │ └── babel-helper-bindify-decorators@6.22.0 </tspan>
<tspan x="10" y="730">      │ └── babel-plugin-syntax-decorators@6.13.0 </tspan>
<tspan x="10" y="746">      └─┬ babel-preset-stage-3@6.22.0 </tspan>
<tspan x="10" y="762">        ├── babel-plugin-syntax-trailing-function-commas@6.22.0 </tspan>
<tspan x="10" y="778">        ├─┬ babel-plugin-transform-async-generator-functions@6.22.0 </tspan>
<tspan x="10" y="794">        │ ├── babel-helper-remap-async-to-generator@6.22.0 </tspan>
<tspan x="10" y="810">        │ └── babel-plugin-syntax-async-generators@6.13.0 </tspan>
<tspan x="10" y="826">        ├─┬ babel-plugin-transform-async-to-generator@6.22.0 </tspan>
<tspan x="10" y="842">        │ └── babel-plugin-syntax-async-functions@6.13.0 </tspan>
<tspan x="10" y="858">        ├─┬ babel-plugin-transform-exponentiation-operator@6.22.0 </tspan>
<tspan x="10" y="874">        │ ├─┬ babel-helper-builder-binary-assignment-operator-visitor@6.22.0 </tspan>
<tspan x="10" y="890">        │ │ └── babel-helper-explode-assignable-expression@6.22.0 </tspan>
<tspan x="10" y="906">        │ └── babel-plugin-syntax-exponentiation-operator@6.13.0 </tspan>
<tspan x="10" y="922">        └─┬ babel-plugin-transform-object-rest-spread@6.23.0 </tspan>
<tspan x="10" y="938">          └── babel-plugin-syntax-object-rest-spread@6.13.0</tspan>
</text>
</svg>
